<?xml version="1.0" encoding="UTF-8"?>
<svg version="1.1" xmlns="http://www.w3.org/2000/svg" width="128" height="128">
<path d="M0 0 C1.04438232 0.00572021 2.08876465 0.01144043 3.16479492 0.01733398 C21.70942382 0.44136623 36.47583263 8.1147571 49.3125 21.5 C59.61413463 34.07080561 64.91699292 47.94083557 64.8125 64.1875 C64.80677979 65.23188232 64.80105957 66.27626465 64.79516602 67.35229492 C64.37113377 85.89692382 56.6977429 100.66333263 43.3125 113.5 C30.74169439 123.80163463 16.87166443 129.10449292 0.625 129 C-0.41938232 128.99427979 -1.46376465 128.98855957 -2.53979492 128.98266602 C-21.08442382 128.55863377 -35.85083263 120.8852429 -48.6875 107.5 C-58.98913463 94.92919439 -64.29199292 81.05916443 -64.1875 64.8125 C-64.18177979 63.76811768 -64.17605957 62.72373535 -64.17016602 61.64770508 C-63.74613377 43.10307618 -56.0727429 28.33666737 -42.6875 15.5 C-30.11669439 5.19836537 -16.24666443 -0.10449292 0 0 Z " fill="#5C9BEB" transform="translate(63.6875,-0.5)"/>
<path d="M0 0 C0.33 0 0.66 0 1 0 C1.02902168 4.41665288 1.04680608 8.83328123 1.0625 13.25 C1.07087891 14.50425781 1.07925781 15.75851563 1.08789062 17.05078125 C1.09272461 18.85869141 1.09272461 18.85869141 1.09765625 20.703125 C1.10551147 22.36843262 1.10551147 22.36843262 1.11352539 24.06738281 C1.01658493 26.57157379 0.73230276 28.6181156 0 31 C1.32 31 2.64 31 4 31 C3.75552124 30.20480957 3.75552124 30.20480957 3.50610352 29.39355469 C2.88292397 26.44630323 2.88813156 23.71610855 2.90234375 20.703125 C2.90556641 19.49785156 2.90878906 18.29257812 2.91210938 17.05078125 C2.92048828 15.79652344 2.92886719 14.54226562 2.9375 13.25 C2.94201172 11.98027344 2.94652344 10.71054687 2.95117188 9.40234375 C2.96295444 6.26818164 2.97940584 3.13411459 3 0 C7.01795161 2.18117373 9.81584252 4.74048351 13 8 C13.81229568 8.81229568 14.62459137 9.62459137 15.46150208 10.46150208 C30.97433472 25.97433472 46.48716736 41.48716736 62 57 C54.73289149 74.21277033 42.83987193 86.96244016 25.375 94.125 C21.00503578 95.25795369 21.00503578 95.25795369 18 94 C15.96241035 92.20589591 14.09055472 90.41568494 12.2109375 88.46875 C11.66643951 87.9176355 11.12194153 87.366521 10.5609436 86.79870605 C8.82504888 85.03943029 7.09964043 83.27030398 5.375 81.5 C3.64152261 79.73146891 1.90592797 77.96509005 0.16763306 76.20129395 C-0.91290221 75.10377159 -1.99033712 74.00318658 -3.06436157 72.89929199 C-5.75900518 70.09334915 -5.75900518 70.09334915 -9 68 C-9 63.38 -9 58.76 -9 54 C-9.66 54 -10.32 54 -11 54 C-11 51.69 -11 49.38 -11 47 C-10.01 46.505 -10.01 46.505 -9 46 C-9.66128906 45.41992188 -10.32257812 44.83984375 -11.00390625 44.2421875 C-11.84824219 43.46101563 -12.69257812 42.67984375 -13.5625 41.875 C-14.83287109 40.72644531 -14.83287109 40.72644531 -16.12890625 39.5546875 C-18 37 -18 37 -17.83959961 34.28491211 C-16.87151158 30.49729231 -15.30579539 27.2883677 -13.4375 23.88671875 C-13.0861499 23.23169876 -12.7347998 22.57667877 -12.37280273 21.90180969 C-11.25651491 19.82595251 -10.12826408 17.75686736 -9 15.6875 C-8.24143927 14.27839733 -7.483619 12.86889578 -6.7265625 11.45898438 C-1.19174226 1.19174226 -1.19174226 1.19174226 0 0 Z " fill="#588FD4" transform="translate(62,31)"/>
<path d="M0 0 C0.33 0 0.66 0 1 0 C1.02902168 4.41665288 1.04680608 8.83328123 1.0625 13.25 C1.07087891 14.50425781 1.07925781 15.75851563 1.08789062 17.05078125 C1.09272461 18.85869141 1.09272461 18.85869141 1.09765625 20.703125 C1.10551147 22.36843262 1.10551147 22.36843262 1.11352539 24.06738281 C1.01658493 26.57157379 0.73230276 28.6181156 0 31 C1.32 31 2.64 31 4 31 C3.75552124 30.20480957 3.75552124 30.20480957 3.50610352 29.39355469 C2.88292397 26.44630323 2.88813156 23.71610855 2.90234375 20.703125 C2.90556641 19.49785156 2.90878906 18.29257812 2.91210938 17.05078125 C2.92048828 15.79652344 2.92886719 14.54226562 2.9375 13.25 C2.94201172 11.98027344 2.94652344 10.71054687 2.95117188 9.40234375 C2.96295444 6.26818164 2.97940584 3.13411459 3 0 C5.68347521 2.39255548 7.14736708 4.88816192 8.77734375 8.078125 C9.54788086 9.57279297 9.54788086 9.57279297 10.33398438 11.09765625 C10.86314453 12.13792969 11.39230469 13.17820312 11.9375 14.25 C12.98701682 16.29752361 14.03777002 18.34441402 15.08984375 20.390625 C15.58468262 21.36193359 16.07952148 22.33324219 16.58935547 23.33398438 C17.78969349 25.60253598 19.07425681 27.75276639 20.44140625 29.921875 C22 33 22 33 21.95703125 35.63671875 C19.83435728 40.87842385 16.91978849 44.18026511 12 47 C5.16938255 48.73690272 -3.4273577 49.21835261 -9.90527344 46.07568359 C-13.44895604 43.65553091 -16.08855446 40.82289109 -18 37 C-17.65319462 32.03681985 -15.79350447 28.17635097 -13.4375 23.88671875 C-13.0861499 23.23169876 -12.7347998 22.57667877 -12.37280273 21.90180969 C-11.25651491 19.82595251 -10.12826408 17.75686736 -9 15.6875 C-8.24143927 14.27839733 -7.483619 12.86889578 -6.7265625 11.45898438 C-1.19174226 1.19174226 -1.19174226 1.19174226 0 0 Z " fill="#F9CB56" transform="translate(62,31)"/>
<path d="M0 0 C8.25 0 16.5 0 25 0 C24.67 6.6 24.34 13.2 24 20 C16.74 20 9.48 20 2 20 C2 15.71 2 11.42 2 7 C1.34 7 0.68 7 0 7 C0 4.69 0 2.38 0 0 Z " fill="#424A55" transform="translate(51,78)"/>
<path d="M0 0 C1.98 0.495 1.98 0.495 4 1 C3.99214478 2.19544434 3.99214478 2.19544434 3.98413086 3.41503906 C3.963341 7.02668469 3.95033339 10.63831771 3.9375 14.25 C3.92912109 15.50425781 3.92074219 16.75851563 3.91210938 18.05078125 C3.90888672 19.25605469 3.90566406 20.46132813 3.90234375 21.703125 C3.89448853 23.36843262 3.89448853 23.36843262 3.88647461 25.06738281 C3.98341507 27.57157379 4.26769724 29.6181156 5 32 C2.525 32.495 2.525 32.495 0 33 C-0.5625 31.0625 -0.5625 31.0625 -1 29 C-0.67 28.67 -0.34 28.34 0 28 C0.08767112 25.92737924 0.10695873 23.85179706 0.09765625 21.77734375 C0.09443359 20.51728516 0.09121094 19.25722656 0.08789062 17.95898438 C0.07953403 16.61848891 0.07106907 15.27799412 0.0625 13.9375 C0.0574866 12.59310058 0.05292342 11.2486994 0.04882812 9.90429688 C0.03699488 6.60282059 0.02050971 3.30143197 0 0 Z " fill="#7098C2" transform="translate(62,30)"/>
</svg>
